<svg version="1.1" xmlns="http://www.w3.org/2000/svg" xmlns:xlink="http://www.w3.org/1999/xlink" x="0px" y="0px" viewBox="0 0 177 200" xml:space="preserve"><style>.st0{fill:#78be20}</style><path class="st0" d="M118.72-0.01c-2.97,0-5.4,2.43-5.4,5.4v70.1h-46c-8.91,0-16.21-7.29-16.21-16.21V5.39c0-2.97-2.43-5.4-5.4-5.4        H0.08v200h45.63c2.97,0,5.4-2.43,5.4-5.4V122.6h46c8.91,0,16.21,7.29,16.21,16.21v55.78c0,2.97,2.43,5.4,5.4,5.4h45.63v-200H118.72z        M172.71,191.88c-2.25,0-4,1.8-4,4.05c0,2.25,1.76,4.05,3.99,4.05c2.21,0,3.95-1.81,3.95-4.05        C176.65,193.68,174.93,191.88,172.71,191.88z M172.69,199.31c-1.78,0-3.14-1.48-3.14-3.38c0-1.9,1.39-3.37,3.17-3.37        c1.77,0,3.13,1.48,3.13,3.37C175.84,197.85,174.46,199.31,172.69,199.31z M174.51,197.97c-0.31-0.43-0.58-0.81-0.79-1.17l-0.26-0.46        c0.61-0.24,0.89-0.7,0.89-1.36c0-0.95-0.7-1.26-1.77-1.26h-1.43V198c0,0.04,0.1,0.1,0.26,0.1h0.35c0.17,0,0.25-0.06,0.25-0.1v-1.56        h0.57l0.38,0.66c0.17,0.3,0.37,0.59,0.59,0.89c0.04,0.05,0.12,0.11,0.38,0.11h0.25C174.43,198.09,174.57,198.05,174.51,197.97z        M172.66,195.75h-0.64v-1.32h0.54c0.45,0,0.95,0.09,0.95,0.62C173.52,195.45,173.27,195.75,172.66,195.75z"></path></svg>