<svg xmlns="http://www.w3.org/2000/svg" aria-hidden="true" viewBox="0 0 117 24" focusable="false" style="max-width:100%;width:auto"><path fill="#5C9A1B" d="M32.7 5.7c-.4 0-.7.3-.7.7v13.7c-1 .2-2.1.4-3.2.4-2.4 0-3.2-.9-3.2-3.5V6.4c0-.4-.3-.7-.6-.7h-3.6V17c0 5.3 2.8 7 7.3 7 3.6 0 7.2-1 7.5-1.1V5.7h-3.5zm55.1 18.1c.3 0 .7-.3.7-.7V9.3c1-.2 2.1-.4 3.2-.4 2.4 0 3.2.9 3.2 3.5v10.7c0 .4.3.7.6.7h3.6V12.4c0-5.3-2.8-7-7.3-7-3.6 0-7.2 1-7.5 1.1v17.3h3.5zM73.4 5.4c-4.7 0-7.6 2.5-7.6 8v2.7c0 6 3.2 8 6.7 8 1.7 0 3.5-1.2 4-2v1.1c0 .3.2.6.6.6h3.6V6.4s-3.5-1-7.3-1zm3.1 14c-.8.7-1.4 1.1-3 1.1-2.4 0-3.4-1.5-3.4-4.5v-2.5C70 10 71.3 9 73.4 9c1.7 0 2.7.1 3 .2l.1 10.2zm33.2-14c-4.7 0-7.6 2.5-7.6 8v2.7c0 6 3.2 8 6.6 8 1.7 0 3.5-1.2 4-2v1.1c0 .3.3.6.6.6h3.6V6.4c.1 0-3.4-1-7.2-1zm3.1 14c-.8.7-1.4 1.1-3 1.1-2.4 0-3.4-1.5-3.4-4.5v-2.5c0-3.6 1.3-4.5 3.4-4.5 1.7 0 2.7.1 3 .2v10.2zM0 23.8h3.8c.3 0 .6-.3.6-.6v-10h7c1.2 0 2 .9 2 1.9v8.1c0 .3.3.6.6.6h3.8V0H14c-.3 0-.6.3-.6.6v9H6.2c-1 0-1.7-.8-1.7-1.7V.6C4.4.4 4.2 0 3.8 0H0v23.8zM56.3 5.4c-2 0-3.9.8-4.8 1.4-1.3-1-3.1-1.4-5.3-1.4-3.3 0-6.1 1-6.5 1.2v17.3h3.6c.4 0 .6-.3.6-.7V9.3c.9-.2 1.6-.3 2.2-.3 2.5 0 3.1 1 3.1 3.5v10.7c0 .3.2.7.6.7h3c.4 0 .6-.3.6-.7V9.8c.7-.5 1.6-.8 2.5-.8 1.9 0 2.7.9 2.7 3.2v11c0 .3.2.7.6.7h3.6V11.6c.1-4.6-2.8-6.2-6.5-6.2z"></path></svg>